<svg width="100" height="100" viewBox="0 0 100 100" fill="none" xmlns="http://www.w3.org/2000/svg">
  <rect width="100" height="100" rx="20" fill="#5F6368"/>
  <path d="M50 20C33.43 20 20 33.43 20 50C20 56.64 22.15 62.78 25.83 67.83L22 82L36.85 78.08C41.32 80.53 45.55 81.76 50 81.76C66.57 81.76 80 68.33 80 51.76C80 35.19 66.57 20 50 20ZM66.93 62.86C66.23 64.79 63.57 66.41 61.09 66.91C59.38 67.25 57.17 67.42 50.07 64.48C42.96 61.54 38.33 54.32 38.02 53.9C37.69 53.48 35.15 50.1 35.15 46.6C35.15 43.1 36.93 41.4 38.28 40.05C38.98 39.35 40.09 39.35 40.97 39.35C41.84 39.35 42.09 39.35 42.59 40.5C43.23 41.96 44.84 45.91 45.04 46.32C45.24 46.74 45.44 47.3 45.17 47.84C44.89 48.38 44.67 48.62 44.24 49.13C43.82 49.63 43.43 49.94 43.02 50.46C42.66 50.91 42.28 51.4 42.77 52.25C43.26 53.1 45.01 55.96 47.59 58.25C50.88 61.17 53.62 62.1 54.59 62.51C55.56 62.93 56.14 62.77 56.66 62.18C57.17 61.58 58.88 59.62 59.49 58.76C60.1 57.9 60.71 58.02 61.56 58.33C62.41 58.65 66.99 60.9 67.93 61.37C68.87 61.84 69.49 62.07 69.69 62.45C69.89 62.82 69.89 64.54 68.93 66.86L66.93 62.86Z" fill="white"/>
</svg>